<svg width="15" height="12" viewBox="0 0 15 12" fill="none" xmlns="http://www.w3.org/2000/svg">
<path d="M5.44336 8.89758H12.2285C12.5859 8.89758 12.9023 8.63977 12.9023 8.24133C12.9023 7.84875 12.5859 7.59094 12.2285 7.59094H5.625C5.42578 7.59094 5.30273 7.45032 5.27344 7.23938L5.18555 6.64758H12.334C13.2949 6.64758 13.8223 6.07336 13.9629 5.10071L14.3555 2.42297C14.3672 2.34094 14.3848 2.22961 14.3848 2.14758C14.3848 1.71399 14.0977 1.4093 13.5645 1.4093H4.44141L4.37695 0.946411C4.28906 0.348755 4.01367 0.0440674 3.27539 0.0440674H1.34766C0.955078 0.0440674 0.615234 0.378052 0.615234 0.782349C0.615234 1.18665 0.955078 1.52063 1.34766 1.52063H2.95312L3.80859 7.36243C3.95508 8.3175 4.47656 8.89758 5.44336 8.89758ZM12.8203 2.71594L12.5156 4.99524C12.4805 5.20618 12.375 5.33508 12.1699 5.33508L5.00391 5.34094L4.62891 2.71594H12.8203ZM5.94141 11.9738C6.57422 11.9738 7.07812 11.4698 7.07812 10.837C7.07812 10.2101 6.57422 9.70618 5.94141 9.70618C5.32031 9.70618 4.81055 10.2101 4.81055 10.837C4.81055 11.4698 5.32031 11.9738 5.94141 11.9738ZM11.2559 11.9738C11.8828 11.9738 12.3867 11.4698 12.3867 10.837C12.3867 10.2101 11.8828 9.70618 11.2559 9.70618C10.6289 9.70618 10.1191 10.2101 10.1191 10.837C10.1191 11.4698 10.6289 11.9738 11.2559 11.9738Z" fill="white"/>
</svg>
