<svg width="16" height="15" viewBox="0 0 16 15" fill="none" xmlns="http://www.w3.org/2000/svg">
<path d="M3.13281 14.6985H12.5938C14.2812 14.6985 15.1562 13.8235 15.1562 12.1594V2.65161C15.1562 0.979736 14.2812 0.112549 12.5938 0.112549H3.13281C1.44531 0.112549 0.570312 0.979736 0.570312 2.65161V12.1594C0.570312 13.8313 1.44531 14.6985 3.13281 14.6985ZM7.01562 11.2532C6.71875 11.2532 6.47656 11.1204 6.25781 10.8391L4.34375 8.51099C4.20312 8.33911 4.13281 8.15161 4.13281 7.9563C4.13281 7.55786 4.44531 7.22974 4.85156 7.22974C5.09375 7.22974 5.28125 7.32349 5.47656 7.57349L6.98438 9.48755L10.2188 4.31567C10.3828 4.04224 10.6016 3.90942 10.8516 3.90942C11.2422 3.90942 11.5938 4.18286 11.5938 4.58911C11.5938 4.7688 11.5 4.96411 11.3906 5.13599L7.73438 10.8391C7.55469 11.1047 7.30469 11.2532 7.01562 11.2532Z" fill="#F01C4F"/>
</svg>
