<svg width="16" height="15" viewBox="0 0 16 15" fill="none" xmlns="http://www.w3.org/2000/svg">
<path d="M3.13281 14.6985H12.5938C14.2812 14.6985 15.1562 13.8235 15.1562 12.1594V2.65161C15.1562 0.979736 14.2812 0.112549 12.5938 0.112549H3.13281C1.44531 0.112549 0.570312 0.979736 0.570312 2.65161V12.1594C0.570312 13.8313 1.44531 14.6985 3.13281 14.6985ZM3.22656 13.1672C2.5 13.1672 2.10156 12.7844 2.10156 12.0266V2.77661C2.10156 2.0188 2.5 1.6438 3.22656 1.6438H12.5C13.2188 1.6438 13.625 2.0188 13.625 2.77661V12.0266C13.625 12.7844 13.2188 13.1672 12.5 13.1672H3.22656Z" fill="#F01C4F"/>
</svg>
