<svg width="17" height="17" viewBox="0 0 17 17" fill="none" xmlns="http://www.w3.org/2000/svg">
<path d="M8.53906 16.05C12.8984 16.05 16.5078 12.4329 16.5078 8.0813C16.5078 3.72192 12.8906 0.112549 8.53125 0.112549C4.17969 0.112549 0.570312 3.72192 0.570312 8.0813C0.570312 12.4329 4.1875 16.05 8.53906 16.05ZM7.66406 11.9016C7.39844 11.9016 7.17969 11.7922 6.97656 11.5188L5.01562 9.11255C4.89844 8.9563 4.82812 8.78442 4.82812 8.60474C4.82812 8.25317 5.10156 7.96411 5.45312 7.96411C5.67969 7.96411 5.85156 8.03442 6.04688 8.29224L7.63281 10.3391L10.9688 4.97974C11.1172 4.74536 11.3203 4.62036 11.5234 4.62036C11.8672 4.62036 12.1875 4.85474 12.1875 5.22192C12.1875 5.3938 12.0859 5.57349 11.9922 5.73755L8.32031 11.5188C8.15625 11.7766 7.92969 11.9016 7.66406 11.9016Z" fill="#F01C4F"/>
</svg>
